<?xml version="1.0" encoding="UTF-8"?>
<svg width="171px" height="31px" viewBox="0 0 197 36" version="1.1" xmlns="http://www.w3.org/2000/svg" xmlns:xlink="http://www.w3.org/1999/xlink">
    <!-- Generator: Sketch 61.2 (89653) - https://sketch.com -->
    <title>Group 5</title>
    <desc>Created with Sketch.</desc>
    <g id="Page-1" stroke="none" stroke-width="1" fill="none" fill-rule="evenodd">
        <g id="Group-5" transform="translate(1.000000, 0.000000)">
            <path d="M121.27,20.5 C121.27,26.99 118.35,35.5 110.58,35.5 C105.44,35.5 102.38,30.83 102.58,25.45 C102.83,18.68 106.31,11.27 113.76,11.27 C118.91,11.22 121.27,14.67 121.27,20.5 Z M104.73,25.34 C104.44,29.34 106.61,33.56 110.86,33.56 C116.75,33.56 119.12,26.25 119.12,20.44 C119.12,16.02 117.6,13.11 113.61,13.11 C107.54,13.11 105.14,19.86 104.73,25.34 L104.73,25.34 Z" id="Shape" fill="#FFFFFF" fill-rule="nonzero"></path>
            <path d="M137.74,28.29 L143,28.29 C143,28.29 142.07,33.29 135.64,34.83 C135.64,34.83 131.25,35.83 128.23,32.92 C127.130999,31.6538834 126.558475,30.0150337 126.63,28.34 C126.63,28.34 126.96,21.28 128.87,17.34 C129.786503,14.8108061 131.719143,12.7802642 134.2,11.74 C134.2,11.74 138.71,10.07 141.73,12.25 C141.73,12.25 144.56,13.77 144.92,18.35 L139.66,18.35 C139.66,18.35 139.46,15.83 137.23,15.72 C137.23,15.72 134.63,15.5 133.51,18.83 C132.746411,21.3156054 132.194443,23.8613473 131.86,26.44 C131.81,27.32 131.21,30.23 133.64,30.87 C133.64,30.9 136.1,31.55 137.74,28.29 Z" id="Path" fill="#FFFFFF" fill-rule="nonzero"></path>
            <path d="M167.99,16 C167.508507,13.4595561 165.361204,11.571908 162.78,11.42 L162.7,11.42 L153.34,11.21 L148.65,34.64 L157.46,34.64 C157.46,34.64 163.14,34.88 165.46,29.86 C166.487027,26.8241212 167.25314,23.7061451 167.75,20.54 C168.015545,19.042197 168.096148,17.517452 167.99,16 Z M162.63,20 L160.88,27.74 C160.368975,29.1516998 158.950165,30.0228987 157.46,29.84 L155.06,29.79 L157.62,15.92 L161.01,16.01 C163.39,16.21 162.63,20 162.63,20 Z" id="Shape" fill="#FFFFFF" fill-rule="nonzero"></path>
            <polygon id="Path" fill="#FFFFFF" fill-rule="nonzero" points="172.58 34.69 177.66 34.65 180.06 22.46 180.4 22.46 185.43 34.66 189.82 34.66 194.43 11.19 189.29 11.19 186.89 23.38 186.37 23.38 181.61 11.29 176.95 11.19"></polygon>
            <polygon id="Path" fill="#FFFFFF" fill-rule="nonzero" points="92.81 34.62 90.69 34.62 95.38 11.2 97.5 11.2"></polygon>
            <polygon id="Path" fill="#FFFFFF" fill-rule="nonzero" points="98.75 2.69 96.63 2.69 97.14 0.01 99.26 0.01"></polygon>
            <polygon id="Path" fill="#FFFFFF" fill-rule="nonzero" points="81.6 34.69 79.48 34.69 86.29 0 88.41 0"></polygon>
            <path d="M77.29,12 C77.29,12 70.91,11.41 68.29,20.61 C66.14,28.12 67.55,32.23 70.12,33.4 C70.12,33.4 76.42,36.08 79.86,30.27 C81.5,28.52 83.12,24.19 83.21,19.37 C83.26,16.28 81.69,11.71 77.29,12 Z" id="Path" stroke="#FFFFFF" stroke-width="1.5"></path>
            <path d="M44.1,11.19 L41.28,24.93 C41.28,24.93 38.96,34.23 46.28,34.66 C49.3512561,35.0706615 52.4376322,34.0196653 54.62,31.82 L54.17,34.54 L56.08,34.54 L60.96,11.2 L58.96,11.2 L55.96,26.08 C55.96,26.08 54.69,31.38 49.77,32.69 C49.77,32.69 45.22,34.02 43.42,30.51 C43.42,30.51 42.34,29.01 43.69,23.29 L46.23,11.19 L44.1,11.19 Z" id="Path" fill="#FFFFFF" fill-rule="nonzero"></path>
            <path d="M32.94,3.8 L31.66,11.19 L36.52,11.19 L36.1,12.73 L31.35,12.73 L28.46,27.49 C28.46,27.49 27.46,31.16 28.65,32.05 C29.2621561,32.4909371 29.9956158,32.731931 30.75,32.74 L32.61,32.74 L32.36,34.48 C32.36,34.48 28.71,34.81 27.31,33.59 C27.31,33.59 25.39,32.25 26.16,28.8 L29.33,12.73 L26.18,12.73 L26.74,11.19 L29.66,11.19 L31.18,3.79 L32.94,3.8 Z" id="Path" fill="#FFFFFF" fill-rule="nonzero"></path>
            <path d="M18.08,14.25 C18.08,14.25 16.15,11.83 10.92,12.11 C7.89277987,12.1292659 5.19156068,14.0149476 4.13,16.85 C4.13,16.85 2.55,22.11 8.39,23 C8.39,23 16.65,23.22 16.67,27.83 C16.67,27.83 17.21,32.83 10.92,34.16 C10.92,34.16 3.52,35.22 2.13162821e-14,31.55" id="Path" stroke="#FFFFFF" stroke-width="1.5"></path>
        </g>
    </g>
</svg>